<?xml version="1.0" encoding="UTF-8" standalone="no"?>
<svg width="332px" height="74px" viewBox="0 0 332 74" version="1.1" xmlns="http://www.w3.org/2000/svg" xmlns:xlink="http://www.w3.org/1999/xlink">
    <!-- Generator: Sketch 3.6.1 (26313) - http://www.bohemiancoding.com/sketch -->
    <title>crowdcrating-logo</title>
    <desc>Created with Sketch.</desc>
    <defs/>
    <g id="Page-1" stroke="none" stroke-width="1" fill="none" fill-rule="evenodd">
        <g id="Artboard-7" transform="translate(-181.000000, -344.000000)" fill="#44B39D">
            <g id="crowdcrating-logo" transform="translate(181.000000, 344.000000)">
                <path d="M62.4105685,67.3850122 C62.4105685,69.2230364 61.3084963,70.1417517 59.1049514,70.1417517 L59.0683755,70.1417517 C56.7569019,70.1417517 55.6008653,69.1696227 55.6008653,67.2247712 C55.6122578,65.6478806 57.0027396,64.859732 59.7693127,64.859732 C60.4996304,64.8716017 61.3804488,64.9493483 62.4105685,65.0911913 L62.4105685,67.3850122 Z M58.7272008,55.255952 C56.6669613,55.255952 54.7919994,55.5936451 53.1035144,56.269625 L53.1035144,59.8091716 C54.6247099,59.1925403 56.4151276,58.883928 58.4759667,58.883928 C61.0746507,58.883928 62.3745923,60.0287612 62.3745923,62.3166473 C61.2245517,62.1510648 60.1470632,62.0673834 59.140328,62.0673834 C57.7390533,62.0673834 56.5236559,62.224657 55.4935362,62.5386108 C54.4628168,62.8525645 53.6839311,63.2300212 53.1568792,63.6680134 C52.6298272,64.1077861 52.213702,64.6169965 51.9079039,65.1980187 C51.6033051,65.7784474 51.4144298,66.2615444 51.3430769,66.6473099 C51.2705248,67.0318884 51.233949,67.4093451 51.233949,67.7761191 C51.233949,69.5079093 51.8725273,70.9779726 53.1484847,72.1874957 C54.4244421,73.3964254 56.4091316,74 59.1049514,74 C61.7276195,74 63.6715359,73.3993928 64.9349016,72.1958045 C66.1982674,70.9928097 66.8308496,69.5547947 66.8308496,67.8829464 L66.8308496,62.974229 C66.8308496,60.4732817 66.1359085,58.5616654 64.7466259,57.2387866 C63.3567437,55.9176881 61.3504686,55.255952 58.7272008,55.255952 L58.7272008,55.255952 Z M114.437013,59.044169 C116.030161,59.044169 117.551357,59.3349768 119,59.9154055 L119,56.269625 C117.262947,55.5936451 115.497113,55.255952 113.700699,55.255952 C110.908943,55.255952 108.765358,56.0624986 107.267547,57.6749983 C105.769737,59.2869045 105.021431,61.6109932 105.021431,64.6466708 C105.021431,67.657422 105.769737,69.9690475 107.267547,71.5821407 C108.765358,73.1952339 110.908943,74 113.700699,74 C115.497113,74 117.262947,73.6629003 119,72.9869205 L119,69.3417334 C117.478805,69.9459015 115.958209,70.2485791 114.437013,70.2485791 C112.747329,70.2485791 111.492358,69.8598462 110.672099,69.0829738 C109.851241,68.3078819 109.441112,66.8283229 109.441112,64.6466708 C109.441112,62.4406857 109.851241,60.9563788 110.672099,60.1919697 C111.492358,59.4269671 112.747329,59.044169 114.437013,59.044169 L114.437013,59.044169 Z M79.7834964,68.8307425 C79.2198686,69.7761647 78.2377172,70.2485791 76.8370421,70.2485791 C74.6328976,70.2485791 73.5308253,69.5945582 73.5308253,68.285923 L73.5308253,58.9741377 C74.3570797,58.7717592 75.3098506,58.6702732 76.3873391,58.6702732 C77.7646296,58.6702732 78.8157355,59.0785912 79.5406568,59.8928531 C80.2649785,60.707115 80.6277389,62.1374147 80.6277389,64.1825652 C80.6277389,66.3351366 80.3465246,67.8853204 79.7834964,68.8307425 L79.7834964,68.8307425 Z M76.5492321,55.255952 C75.5904653,55.255952 74.5849293,55.3515031 73.5308253,55.5408249 L73.5308253,48.5519414 L69.1111438,48.5519414 L69.1111438,67.8746376 C69.1111438,69.5607295 69.7425269,71.0028989 71.0058927,72.2023329 C72.2692584,73.4011733 74.2137744,74 76.8370421,74 C77.444441,74 78.0500411,73.9537081 78.6520436,73.858157 C79.2546456,73.7626059 79.9639772,73.513342 80.7812376,73.1103655 C81.5984979,72.7062019 82.2982358,72.1833413 82.8828498,71.5417837 C83.4674637,70.901413 83.9741292,69.9595517 84.4046449,68.7179803 C84.8333618,67.476409 85.04802,66.0419548 85.04802,64.4152115 C85.04802,61.4572805 84.3141047,59.1907599 82.8474731,57.6168367 C81.380242,56.0429136 79.2810282,55.255952 76.5492321,55.255952 L76.5492321,55.255952 Z M98.2680902,73.716314 L102.669784,73.716314 L102.669784,55.5408249 L98.2680902,55.5408249 L98.2680902,73.716314 Z M51.6680623,55.5408249 L47.4456505,55.5408249 C47.4456505,53.9639344 47.6974842,52.903376 48.200552,52.357963 C48.7036199,51.8125499 49.5304738,51.5395467 50.6805144,51.5395467 C50.8957723,51.5395467 51.2255545,51.5632861 51.6680623,51.6107649 L51.6680623,48.1780456 C51.0570658,48.0593485 50.4580613,48 49.8716485,48 C45.3320463,48 43.0493536,50.5134105 43.0259691,55.5408249 L39.8996335,55.5408249 L39.8996335,59.2934329 L43.0259691,59.2934329 L43.0259691,73.716314 L47.4456505,73.716314 L47.4456505,59.2934329 L51.6680623,59.2934329 L51.6680623,55.5408249 Z M13.0889378,63.3926362 C12.2327032,63.0193339 11.3734706,62.7231847 10.5106404,62.5035952 C9.64840976,62.2840056 8.91749241,62.0294004 8.31908757,61.7385925 C7.71948351,61.4477847 7.42088069,61.0477756 7.42088069,60.5379716 C7.42088069,59.5183638 8.47438502,59.0085599 10.5825929,59.0085599 C12.1637488,59.0085599 13.5770155,59.2993677 14.8235924,59.8797964 L14.8235924,56.5544979 C13.3017973,55.6891963 11.6313004,55.255952 9.80970325,55.255952 C7.86938453,55.255952 6.24985398,55.7449839 4.94991239,56.7230478 C3.6499708,57.7017051 3,59.1035175 3,60.929672 C3,62.0911228 3.30280005,63.0543496 3.90780054,63.8193522 C4.51220143,64.5843548 5.24251916,65.1321418 6.09935336,65.4644936 C6.95618755,65.7962519 7.81182254,66.0840923 8.66925634,66.3268278 C9.52549093,66.5707503 10.2564083,66.8544363 10.8608092,67.1802598 C11.4658096,67.5066767 11.7686097,67.9369536 11.7686097,68.4704969 C11.7686097,69.0509256 11.5767364,69.4865439 11.1929898,69.7767582 C10.8098428,70.0681595 9.98298882,70.2129699 8.71362704,70.2129699 C6.86924496,70.2129699 5.13818806,69.6788331 3.52105592,68.6123399 L3.52105592,72.5067908 C5.29408511,73.5032528 7.23440383,74 9.34261169,74 C11.4028512,74 13.0589576,73.4973179 14.3103313,72.4895798 C15.5623045,71.4812481 16.1882912,70.2129699 16.1882912,68.6835582 C16.1882912,67.3084526 15.8854911,66.1754891 15.2804906,65.286448 C14.6760898,64.3974069 13.9451724,63.7659385 13.0889378,63.3926362 L13.0889378,63.3926362 Z M33.4508919,73.716314 L37.8531849,73.716314 L37.8531849,55.5408249 L33.4508919,55.5408249 L33.4508919,73.716314 Z M19.7793199,57.6749983 C18.2821085,59.2869045 17.5338027,61.6109932 17.5338027,64.6466708 C17.5338027,67.657422 18.2821085,69.9690475 19.7793199,71.5821407 C21.2771308,73.1952339 23.4213149,74 26.2124718,74 C28.0088855,74 29.7759187,73.6629003 31.5129716,72.9869205 L31.5129716,69.3417334 C29.9917761,69.9459015 28.4705806,70.2485791 26.9487855,70.2485791 C25.2603005,70.2485791 24.0047296,69.8598462 23.1850709,69.0829738 C22.3642129,68.3078819 21.9540838,66.8283229 21.9540838,64.6466708 C21.9540838,62.4406857 22.3642129,60.9563788 23.1850709,60.1919697 C24.0047296,59.4269671 25.2603005,59.044169 26.9487855,59.044169 C28.5419335,59.044169 30.063129,59.3349768 31.5129716,59.9154055 L31.5129716,56.269625 C29.7759187,55.5936451 28.0088855,55.255952 26.2124718,55.255952 C23.4213149,55.255952 21.2771308,56.0624986 19.7793199,57.6749983 L19.7793199,57.6749983 Z M88.4777552,56.6565774 C87.9501036,56.8506471 87.5369764,57.01801 87.2383736,57.1592595 L87.2383736,73.716314 L91.6580551,73.716314 L91.6580551,59.6145084 C92.9753852,59.2346778 94.5565411,59.0328928 96.4009232,59.0085599 L96.4009232,55.255952 C94.8317594,55.2802849 93.2512031,55.4707937 91.6580551,55.8286653 C90.0649071,56.1871305 89.0048072,56.4631012 88.4777552,56.6565774 L88.4777552,56.6565774 Z" id="Fill-7-Copy-4" fill-opacity="0.5"/>
                <path d="M249.765,3.625 L242.393,3.625 L242.393,12.705 L230.74,12.705 C230.74,10.049 231.16,8.26 231.998,7.342 C232.838,6.422 234.216,5.963 236.134,5.963 C236.493,5.963 237.042,6.002 237.783,6.084 L237.783,0.299 C236.763,0.1 235.765,0 234.785,0 C227.214,0 223.409,4.234 223.368,12.705 L218.155,12.705 L218.155,19.029 L223.368,19.029 L223.368,43.33 L230.74,43.33 L230.74,19.029 L242.393,19.029 L242.393,33.682 C242.393,36.838 243.261,39.314 245,41.113 C246.739,42.912 249.125,43.809 252.161,43.809 L252.312,43.809 C254.009,43.809 255.576,43.51 257.017,42.912 L257.017,36.828 C255.997,37.268 254.829,37.488 253.511,37.488 C252.112,37.488 251.138,37.256 250.589,36.797 C250.038,36.338 249.765,35.449 249.765,34.131 L249.765,19.029 L257.017,19.029 L257.017,12.705 L249.765,12.705 L249.765,3.625 Z M209.738,32.662 C209.738,35.758 207.9,37.307 204.224,37.307 L204.163,37.307 C200.308,37.307 198.38,35.67 198.38,32.393 C198.4,29.736 200.718,28.408 205.332,28.408 C206.55,28.428 208.019,28.557 209.738,28.797 L209.738,32.662 Z M203.595,12.227 C200.159,12.227 197.032,12.795 194.215,13.934 L194.215,19.896 C196.751,18.859 199.739,18.338 203.175,18.338 C207.51,18.338 209.677,20.268 209.677,24.121 C207.76,23.844 205.962,23.703 204.283,23.703 C201.947,23.703 199.919,23.967 198.2,24.496 C196.482,25.025 195.183,25.66 194.305,26.4 C193.425,27.139 192.732,27.998 192.222,28.977 C191.713,29.955 191.398,30.77 191.279,31.418 C191.159,32.068 191.098,32.703 191.098,33.322 C191.098,36.24 192.162,38.715 194.29,40.754 C196.417,42.791 199.728,43.809 204.224,43.809 C208.599,43.809 211.839,42.797 213.948,40.77 C216.054,38.742 217.109,36.318 217.109,33.5 L217.109,25.23 C217.109,21.016 215.95,17.795 213.633,15.566 C211.316,13.34 207.969,12.227 203.595,12.227 L203.595,12.227 Z M177.079,14.586 C176.199,14.912 175.509,15.193 175.011,15.432 L175.011,43.33 L182.382,43.33 L182.382,19.57 C184.579,18.93 187.216,18.588 190.292,18.549 L190.292,12.227 C187.675,12.266 185.038,12.586 182.382,13.189 C179.725,13.793 177.957,14.26 177.079,14.586 L177.079,14.586 Z M324.1,36.469 C322.66,36.748 321.193,36.889 319.695,36.889 C317.437,36.889 315.758,36.273 314.661,35.045 C313.561,33.816 313.012,31.484 313.012,28.047 C313.012,24.732 313.511,22.359 314.51,20.932 C315.509,19.504 316.988,18.787 318.946,18.787 L319.035,18.787 C322.41,18.787 324.1,19.928 324.1,22.205 L324.1,36.469 Z M328.429,15.162 C326.402,13.205 323.24,12.227 318.946,12.227 C317.966,12.227 316.988,12.307 316.009,12.465 C315.03,12.625 313.886,13.035 312.579,13.693 C311.269,14.354 310.136,15.213 309.177,16.271 C308.217,17.33 307.388,18.863 306.689,20.871 C305.99,22.879 305.641,25.23 305.641,27.928 C305.641,32.762 306.829,36.469 309.206,39.045 C311.583,41.623 315,42.912 319.455,42.912 C320.912,42.893 322.46,42.723 324.1,42.402 L324.1,44.078 C324.1,44.758 324.05,45.293 323.95,45.684 C323.85,46.072 323.606,46.547 323.216,47.105 C322.825,47.666 322.092,48.074 321.013,48.334 C319.935,48.594 318.535,48.725 316.818,48.725 C313.941,48.725 311.275,48.314 308.816,47.496 L308.816,54.059 C311.473,54.877 314.421,55.287 317.658,55.287 C319.954,55.287 321.972,55.02 323.71,54.492 C325.449,53.963 326.796,53.318 327.755,52.561 C328.714,51.801 329.484,50.881 330.062,49.803 C330.642,48.725 331.021,47.746 331.2,46.865 C331.382,45.986 331.471,45.059 331.471,44.078 L331.471,22.295 C331.471,19.498 330.456,17.121 328.429,15.162 L328.429,15.162 Z M152.39,16.301 C149.892,19.018 148.644,22.934 148.644,28.047 C148.644,33.121 149.892,37.018 152.39,39.734 C154.887,42.451 158.462,43.809 163.118,43.809 C166.115,43.809 169.06,43.24 171.957,42.102 L171.957,35.959 C169.419,36.979 166.883,37.488 164.346,37.488 C161.53,37.488 159.436,36.832 158.068,35.523 C156.7,34.217 156.016,31.723 156.016,28.047 C156.016,24.332 156.7,21.83 158.068,20.541 C159.436,19.252 161.53,18.607 164.346,18.607 C167.003,18.607 169.539,19.098 171.957,20.076 L171.957,13.934 C169.06,12.795 166.115,12.227 163.118,12.227 C158.462,12.227 154.887,13.584 152.39,16.301 L152.39,16.301 Z M287.935,12.227 C283.059,12.227 278.374,13.346 273.88,15.582 L273.88,43.33 L281.251,43.33 L281.251,19.268 C283.248,18.908 285.148,18.729 286.946,18.729 C288.542,18.729 289.852,18.879 290.869,19.178 C291.889,19.477 292.624,19.928 293.074,20.527 C293.523,21.125 293.822,21.701 293.972,22.25 C294.122,22.799 294.197,23.484 294.197,24.303 L294.197,43.33 L301.568,43.33 L301.568,24.932 C301.568,20.916 300.365,17.795 297.956,15.566 C295.548,13.34 292.207,12.227 287.935,12.227 L287.935,12.227 Z M260.668,43.33 L268.011,43.33 L268.011,12.705 L260.668,12.705 L260.668,43.33 Z M3.746,16.301 C1.249,19.018 0,22.934 0,28.047 C0,33.121 1.249,37.018 3.746,39.734 C6.244,42.451 9.82,43.809 14.474,43.809 C17.47,43.809 20.417,43.24 23.315,42.102 L23.315,35.959 C20.777,36.979 18.24,37.488 15.703,37.488 C12.886,37.488 10.793,36.832 9.425,35.523 C8.057,34.217 7.373,31.723 7.373,28.047 C7.373,24.332 8.057,21.83 9.425,20.541 C10.793,19.252 12.886,18.607 15.703,18.607 C18.359,18.607 20.897,19.098 23.315,20.076 L23.315,13.934 C20.417,12.795 17.47,12.227 14.474,12.227 C9.82,12.227 6.244,13.584 3.746,16.301 L3.746,16.301 Z M28.436,14.586 C27.556,14.912 26.867,15.193 26.368,15.432 L26.368,43.33 L33.74,43.33 L33.74,19.57 C35.937,18.93 38.574,18.588 41.65,18.549 L41.65,12.227 C39.033,12.266 36.396,12.586 33.74,13.189 C31.081,13.793 29.314,14.26 28.436,14.586 L28.436,14.586 Z M138.099,34.18 C138.099,36.385 136.242,37.488 132.527,37.488 C130.188,37.488 128.55,36.686 127.612,35.082 C126.672,33.48 126.202,30.875 126.202,27.268 C126.202,23.82 126.802,21.41 128.001,20.039 C129.2,18.666 130.948,17.979 133.244,17.979 C135.043,17.998 136.661,18.17 138.099,18.49 L138.099,34.18 Z M138.099,12.705 C136.341,12.387 134.643,12.227 133.005,12.227 C128.431,12.227 124.925,13.551 122.488,16.203 C120.049,18.855 118.831,22.674 118.831,27.658 C118.831,30.4 119.181,32.816 119.88,34.908 C120.579,37 121.428,38.586 122.427,39.666 C123.427,40.748 124.6,41.629 125.949,42.309 C127.296,42.988 128.475,43.408 129.484,43.57 C130.493,43.73 131.507,43.809 132.527,43.809 C136.901,43.809 140.152,42.795 142.28,40.764 C144.408,38.734 145.472,36.307 145.472,33.486 L145.472,0.93 L138.099,0.93 L138.099,12.705 Z M62.053,35.764 C60.894,37.094 59.106,37.758 56.689,37.758 C54.272,37.758 52.48,37.094 51.31,35.764 C50.141,34.436 49.558,31.867 49.558,28.062 C49.558,24.258 50.141,21.686 51.31,20.346 C52.48,19.008 54.272,18.338 56.689,18.338 C59.106,18.338 60.894,19.008 62.053,20.346 C63.212,21.686 63.792,24.258 63.792,28.062 C63.792,31.867 63.212,34.436 62.053,35.764 L62.053,35.764 Z M56.673,12.285 C52.009,12.285 48.429,13.645 45.932,16.361 C43.434,19.078 42.187,22.975 42.187,28.047 C42.187,33.121 43.434,37.018 45.932,39.734 C48.429,42.451 52.009,43.809 56.673,43.809 C61.338,43.809 64.919,42.451 67.417,39.734 C69.913,37.018 71.163,33.121 71.163,28.047 C71.163,22.975 69.913,19.078 67.417,16.361 C64.919,13.645 61.338,12.285 56.673,12.285 L56.673,12.285 Z M103.552,34.789 L97.739,12.705 L91.415,12.705 L85.574,34.789 L79.07,12.705 L71.28,12.705 L82.126,43.33 L89.498,43.33 L94.592,25.711 L99.626,43.33 L106.997,43.33 L117.846,12.705 L110.055,12.705 L103.552,34.789 Z" id="Fill-11"/>
            </g>
        </g>
    </g>
</svg>